<svg xmlns="http://www.w3.org/2000/svg" width="140" height="140" viewBox="0 0 140 140">
  <!-- Тайл фона — каменный пол с рунами -->
  <rect width="140" height="140" fill="#1a1228"/>
  <!-- Каменные плиты -->
  <rect x="4"  y="4"  width="40" height="40" rx="2" fill="#221838" stroke="#2e2048" stroke-width="1"/>
  <rect x="48" y="4"  width="40" height="40" rx="2" fill="#1e1432" stroke="#2e2048" stroke-width="1"/>
  <rect x="92" y="4"  width="44" height="40" rx="2" fill="#241a3c" stroke="#2e2048" stroke-width="1"/>
  <rect x="4"  y="48" width="44" height="40" rx="2" fill="#1e1432" stroke="#2e2048" stroke-width="1"/>
  <rect x="52" y="48" width="40" height="40" rx="2" fill="#221838" stroke="#2e2048" stroke-width="1"/>
  <rect x="96" y="48" width="40" height="40" rx="2" fill="#1e1432" stroke="#2e2048" stroke-width="1"/>
  <rect x="4"  y="92" width="40" height="44" rx="2" fill="#241a3c" stroke="#2e2048" stroke-width="1"/>
  <rect x="48" y="92" width="40" height="44" rx="2" fill="#1e1432" stroke="#2e2048" stroke-width="1"/>
  <rect x="92" y="92" width="44" height="44" rx="2" fill="#221838" stroke="#2e2048" stroke-width="1"/>
  <!-- Рунный тайл с подсветкой -->
  <rect x="56" y="56" width="24" height="24" rx="2" fill="#2e1a4e" stroke="#6040a0" stroke-width="1.5" opacity="0.7"/>
  <text x="68" y="72" text-anchor="middle" font-family="monospace" font-size="14" fill="#7050b0" opacity="0.8">ᚱ</text>
  <!-- Трещины -->
  <line x1="92" y1="48" x2="105" y2="60" stroke="#0e0a1a" stroke-width="1" opacity="0.5"/>
  <line x1="48" y1="4" x2="56" y2="14" stroke="#0e0a1a" stroke-width="1" opacity="0.4"/>
</svg>
